HIERARCHY
ROOT Hips
{
	OFFSET 0.000000 0.000000 0.000000 
	CHANNELS 6 Xposition Yposition Zposition Yrotation Zrotation Xrotation 
	JOINT Lumbar
	{
		OFFSET 0.000000 0.000000 0.000000 
		CHANNELS 3 Zrotation Xrotation Yrotation
		JOINT Neck
		{
			OFFSET 0.000000 0.445665 0.000000 
			CHANNELS 3 Zrotation Xrotation Yrotation
			End Site
			{
				OFFSET 0.000000 0.227535 0.000000 
			}
		}
		JOINT RightShoulder
		{
			OFFSET 0.019635 0.377685 0.194865 
			CHANNELS 3 Zrotation Xrotation Yrotation
			JOINT RightElbow
			{
				OFFSET 0.000000 -0.243375 0.000000 
				CHANNELS 2 Zrotation Yrotation
				JOINT RightWrist
				{
					OFFSET 0.000000 -0.264825 0.000000 
					CHANNELS 2 Zrotation Xrotation
					End Site
					{
						OFFSET 0.006600 -0.176220 0.000990 
					}
				}
			}
		}
		JOINT LeftShoulder
		{
			OFFSET 0.019635 0.377685 -0.194865 
			CHANNELS 3 Zrotation Xrotation Yrotation
			JOINT LeftElbow
			{
				OFFSET 0.000000 -0.243375 0.000000 
				CHANNELS 2 Zrotation Yrotation
				JOINT LeftWrist
				{
					OFFSET 0.000000 -0.264825 0.000000 
					CHANNELS 2 Zrotation Xrotation
					End Site
					{
						OFFSET 0.006600 -0.176220 -0.000990 
					}
				}
			}
		}
	}
	JOINT RightHip
	{
		OFFSET 0.052140 -0.069960 0.075570 
		CHANNELS 3 Zrotation Xrotation Yrotation
		JOINT RightKnee
		{
			OFFSET 0.000000 -0.402270 0.000000 
			CHANNELS 1 Zrotation
			JOINT RightAnkle
			{
				OFFSET 0.000000 -0.404085 0.000000 
				CHANNELS 3 Zrotation Xrotation Yrotation
				End Site
				{
					OFFSET 0.204105 -0.089430 0.008415 
				}
			}
		}
	}
	JOINT LeftHip
	{
		OFFSET 0.052140 -0.069960 -0.075570 
		CHANNELS 3 Zrotation Xrotation Yrotation
		JOINT LeftKnee
		{
			OFFSET 0.000000 -0.402270 0.000000 
			CHANNELS 1 Zrotation
			JOINT LeftAnkle
			{
				OFFSET 0.000000 -0.404085 0.000000 
				CHANNELS 3 Zrotation Xrotation Yrotation
				End Site
				{
					OFFSET 0.204105 -0.089430 -0.008415 
				}
			}
		}
	}
}
MOTION
Frames: 25
Frame Time: 0.02
0.54712 -0.36866 0.00487 -175.29535 -4.47418 -2.34743 14.47206 1.48669 -10.8158 -35.21441 10.69276 -0.83053 58.23435 -54.94517 52.43463 112.70014 77.75415 24.86495 -4.12896 4.36158 1.84182 -50.60629 84.61076 -91.36429 -10.76563 7.25343 84.93075 -16.6273 -7.2436 -88.39773 -11.10381 -5.11827 -3.62435 84.99381 15.62501 5.65451 -95.09293 -8.75269 4.9062 3.3685
0.54723 -0.36895 0.00505 -175.34267 -4.46957 -2.56229 14.38766 1.4913 -11.01405 -35.42925 10.66239 -0.83053 57.85071 -55.83211 52.21084 113.74206 77.05697 24.69299 -4.23228 4.11226 1.75084 -50.74943 84.4099 -96.07627 -12.98453 7.78353 84.83651 -16.58481 -7.49723 -88.38286 -11.09959 -5.11527 -3.62034 85.12341 15.45936 5.17893 -95.1777 -8.78445 4.91783 3.37632
0.54709 -0.36936 0.00528 -175.39424 -4.55529 -2.81831 14.3895 1.58637 -11.29546 -35.59941 10.40556 -0.83053 57.26768 -56.84024 52.00999 115.23259 75.58915 24.33512 -4.45329 4.01769 1.92567 -50.89145 84.3016 -102.15408 -15.88985 8.48805 84.81955 -16.55414 -7.80959 -88.40976 -11.0813 -5.11015 -3.61383 85.37014 15.26678 4.60092 -95.3154 -8.81857 4.9307 3.38469
0.54706 -0.3697 0.00551 -175.45476 -4.59478 -3.0531 14.34993 1.64008 -11.53904 -35.7902 10.24892 -0.83053 56.85119 -57.76171 51.87692 116.45969 74.4382 24.05267 -4.62849 3.84871 1.98027 -51.01937 84.16226 -107.28222 -18.33201 9.07616 84.76483 -16.50264 -8.08319 -88.41533 -11.07047 -5.10606 -3.60867 85.55444 15.11241 4.09111 -95.42925 -8.84907 4.94219 3.39224
0.54706 -0.37008 0.00564 -175.47051 -4.65484 -3.29943 14.31765 1.69606 -11.7826 -35.98037 10.10193 -0.83053 56.12863 -58.83321 51.44268 117.93702 73.39651 23.79034 -4.78037 3.70522 2.0351 -51.20543 83.97719 -113.76268 -21.39333 9.81754 84.71966 -16.51339 -8.40663 -88.43043 -11.05551 -5.10179 -3.60269 85.7763 14.85229 3.49136 -95.54283 -8.89011 4.95704 3.40214
0.54692 -0.37043 0.006 -175.57983 -4.69431 -3.53123 14.2918 1.76855 -12.04574 -36.16002 9.88126 -0.83054 55.979 -59.6114 51.61415 118.99792 71.97858 23.45121 -5.00165 3.54342 2.15202 -51.27207 83.90924 -117.78452 -23.34337 10.28458 84.67366 -16.40045 -8.64232 -88.43579 -11.04546 -5.09731 -3.59775 85.94877 14.80173 3.05197 -95.66924 -8.91016 4.96538 3.40741
0.54642 -0.37066 0.00698 -175.94909 -4.65122 -3.71209 14.25853 1.86213 -12.34596 -36.33271 9.51761 -0.83054 57.60656 -59.59208 53.65321 118.8297 69.42845 22.91748 -5.43167 3.27813 2.36979 -51.0017 84.13975 -114.43736 -21.95733 9.92525 84.60506 -15.91833 -8.60062 -88.40356 -11.05495 -5.09352 -3.59695 85.9498 15.37162 3.10672 -95.81886 -8.86782 4.95359 3.39837
0.54578 -0.37085 0.00819 -176.41143 -4.58516 -3.87702 14.22979 1.96957 -12.66238 -36.49432 9.08622 -0.83054 59.79146 -59.26576 56.26487 118.22408 66.5748 22.32035 -5.91897 2.99032 2.64141 -50.61291 84.48518 -108.61624 -19.44895 9.28893 84.53335 -15.31613 -8.4724 -88.36022 -11.06936 -5.08947 -3.59717 85.89844 16.14688 3.32181 -95.97928 -8.80496 4.93552 3.38488
0.54521 -0.37106 0.0093 -176.82972 -4.53205 -4.04948 14.20185 2.07186 -12.96938 -36.65375 8.6839 -0.83054 61.62331 -59.04789 58.4777 117.79627 64.05213 21.77282 -6.34823 2.72159 2.89164 -50.28383 84.77946 -104.0913 -17.52144 8.79663 84.46426 -14.78516 -8.39719 -88.32238 -11.0798 -5.08504 -3.5965 85.87528 16.80462 3.44616 -96.13426 -8.75404 4.92157 3.37435
0.54461 -0.37129 0.01038 -177.25686 -4.47126 -4.22178 14.16466 2.17197 -13.28835 -36.84211 8.28419 -0.83054 63.8638 -58.95711 61.26519 117.46299 60.70786 21.13068 -6.9136 2.42192 3.13838 -49.93017 85.07268 -98.88958 -15.31986 8.23348 84.39302 -14.18395 -8.266 -88.28414 -11.09705 -5.08263 -3.59753 85.83743 17.5626 3.64163 -96.29362 -8.69227 4.90245 3.35998
0.54403 -0.37147 0.01159 -177.68597 -4.42012 -4.39057 14.14688 2.27939 -13.58468 -36.9681 7.86175 -0.83054 65.39512 -58.53781 63.00582 116.83513 58.98726 20.67311 -7.21158 2.17826 3.40146 -49.59911 85.39391 -94.49046 -13.41229 7.75028 84.3242 -13.70074 -8.23038 -88.24346 -11.10151 -5.07601 -3.5953 85.8165 18.1621 3.72933 -96.4454 -8.64808 4.89244 3.35243
0.54349 -0.37151 0.0132 -178.11203 -4.39811 -4.54893 14.17945 2.39745 -13.81777 -36.92523 7.42967 -0.83054 64.7744 -57.19178 61.59262 115.39454 62.04806 20.7404 -6.72174 2.10278 3.69749 -49.36432 85.7662 -92.92894 -12.60361 7.55175 84.26499 -13.56967 -8.47691 -88.19936 -11.06909 -5.05757 -3.58374 85.85156 18.26362 3.47256 -96.57602 -8.65839 4.91026 3.36575
0.54298 -0.37149 0.01493 -178.53427 -4.3865 -4.70476 14.23117 2.52301 -14.02631 -36.82004 6.97113 -0.83054 63.43407 -55.54188 59.13029 113.68946 66.71481 20.99579 -5.96697 2.08241 4.00671 -49.15584 86.16184 -92.25541 -12.12608 7.44356 84.20741 -13.56199 -8.82269 -88.15288 -11.02379 -5.03498 -3.56889 85.90525 18.20046 3.1038 -96.69791 -8.68692 4.93724 3.38591
0.54245 -0.3715 0.01658 -178.94878 -4.37209 -4.86486 14.27533 2.64877 -14.24376 -36.74321 6.50224 -0.83054 62.45979 -54.09364 57.2271 112.17383 70.50446 21.16732 -5.35594 2.0304 4.30773 -48.93162 86.54525 -91.15194 -11.48248 7.29501 84.14745 -13.49981 -9.12485 -88.10688 -10.98463 -5.01447 -3.55561 85.95249 18.2196 2.79178 -96.82196 -8.70646 4.95925 3.40229
0.54191 -0.37152 0.01836 -179.40618 -4.34985 -5.01214 14.31565 2.76007 -14.47203 -36.66592 6.12638 -0.83054 61.33348 -52.36996 54.99071 110.35382 74.90766 21.3332 -4.64787 2.00444 4.61957 -48.71768 86.9399 -90.05501 -10.85661 7.13195 84.09489 -13.42687 -9.41841 -88.06304 -10.94427 -4.99311 -3.54206 85.9906 18.21487 2.46038 -96.95412 -8.72825 4.98443 3.42132
0.54141 -0.3715 0.01988 -179.77254 -4.34535 -5.18463 14.36748 2.90278 -14.67082 -36.57479 5.55005 -0.83055 60.35402 -51.14734 53.19861 109.10689 78.41471 21.55195 -4.079 1.93898 4.91197 -48.49207 87.31474 -89.21177 -10.29865 7.02672 84.02665 -13.40709 -9.75374 -88.01429 -10.90346 -4.97254 -3.52827 86.05139 18.21751 2.14093 -97.0671 -8.75002 5.00531 3.43654
0.54099 -0.37137 0.0207 -179.88404 -4.39901 -5.43666 14.45465 3.13275 -14.80182 -36.46162 4.43953 -0.83055 59.87799 -51.4204 52.8227 109.53931 79.09308 21.9096 -3.95145 1.73866 5.14046 -48.21141 87.63202 -88.63936 -9.746 7.03642 83.92074 -13.50556 -10.18747 -87.95234 -10.86329 -4.95515 -3.51454 86.18304 18.28469 1.87926 -97.12943 -8.76685 5.01181 3.43924
0.5406 -0.3712 0.02126 -179.90425 -4.46824 -5.71254 14.55125 3.39351 -14.90253 -36.33636 3.127 -0.83055 59.5833 -52.20111 52.93582 110.55247 78.81239 22.30732 -3.97367 1.49895 5.34963 -47.92146 87.92735 -88.3337 -9.27065 7.10553 83.79803 -13.65346 -10.65872 -87.88555 -10.82335 -4.93871 -3.50072 86.33496 18.36322 1.6333 -97.17254 -8.78324 5.01374 3.43795
0.54021 -0.37105 0.02193 -179.96887 -4.52258 -5.97138 14.63798 3.63859 -15.01195 -36.21633 1.89773 -0.83055 59.25793 -52.72825 52.87139 111.28241 78.94203 22.66117 -3.93297 1.28557 5.57238 -47.64752 88.23039 -88.07017 -8.83702 7.16533 83.67889 -13.77834 -11.10862 -87.82131 -10.7841 -4.92186 -3.48699 86.46923 18.43296 1.38092 -97.22446 -8.80022 5.01798 3.43873
0.53976 -0.37085 0.02263 -180.02172 -4.60965 -6.25605 14.74859 3.89123 -15.14168 -36.09604 0.69995 -0.83055 58.70203 -53.34771 52.59845 112.08952 79.21938 23.12875 -3.86394 1.03898 5.77673 -47.32592 88.54427 -87.18703 -8.1065 7.15872 83.57638 -13.91016 -11.58072 -87.75588 -10.74099 -4.90477 -3.47288 86.6389 18.5124 1.12117 -97.27632 -8.81611 5.02161 3.43868
0.53946 -0.37076 0.0232 -180.07663 -4.63286 -6.49293 14.81194 4.13514 -15.22246 -35.9732 -0.60652 -0.83055 58.66283 -53.89119 52.86898 112.87081 78.96033 23.36793 -3.88969 0.85091 6.01291 -47.09946 88.82954 -87.59554 -7.98758 7.29678 83.43594 -14.03725 -12.01341 -87.6913 -10.70623 -4.88848 -3.45963 86.74045 18.57647 0.88257 -97.32317 -8.83402 5.02525 3.43928
0.53952 -0.37103 0.02349 -180.16634 -4.4697 -6.58932 14.73834 4.34877 -15.17364 -35.85513 -2.20198 -0.83056 60.14846 -54.17505 54.70514 113.49716 77.27206 22.95328 -4.17021 0.83877 6.35659 -47.15211 89.04542 -91.95184 -9.72182 7.87782 83.18892 -14.14249 -12.33438 -87.63473 -10.69373 -4.87392 -3.44834 86.64024 18.59539 0.69356 -97.36663 -8.85681 5.03048 3.44287
0.53975 -0.37141 0.02366 -180.25987 -4.24304 -6.63727 14.61762 4.55223 -15.0771 -35.73344 -3.89243 -0.83056 62.12742 -54.35397 57.04481 114.06852 75.10019 22.30886 -4.53719 0.88574 6.73024 -47.2983 89.23251 -97.51763 -12.03543 8.59198 82.9056 -14.2401 -12.6126 -87.57835 -10.68984 -4.86022 -3.438 86.47248 18.59922 0.52683 -97.40464 -8.88167 5.03574 3.44716
0.53992 -0.37173 0.02388 -180.34741 -4.04925 -6.70918 14.52098 4.75944 -15.0037 -35.60812 -5.51434 -0.83056 63.78734 -54.53201 59.0347 114.62741 73.26517 21.7775 -4.84588 0.90228 7.08019 -47.39198 89.42962 -102.22464 -13.95911 9.20563 82.64257 -14.33839 -12.90593 -87.51895 -10.68251 -4.8463 -3.42752 86.34107 18.61072 0.35357 -97.44147 -8.90603 5.04068 3.45095
0.54001 -0.3721 0.02411 -180.45035 -3.83832 -6.77382 14.41309 4.97151 -14.92292 -35.50521 -7.25102 -0.83056 65.84273 -54.92703 61.54055 115.36224 70.91547 21.21145 -5.23796 0.9325 7.47154 -47.52664 89.63814 -108.22044 -16.41078 9.98685 82.36223 -14.45007 -13.21937 -87.47174 -10.67306 -4.83163 -3.4158 86.18588 18.61913 0.16527 -97.49322 -8.92863 5.04685 3.45541
